<?xml version="1.0" encoding="UTF-8" standalone="no"?>
<!-- Created with Inkscape (http://www.inkscape.org/) -->

<svg
   width="203.2mm"
   height="100.92267mm"
   viewBox="0 0 203.2 100.92267"
   version="1.1"
   id="svg1"
   xml:space="preserve"
   inkscape:version="1.4 (e7c3feb1, 2024-10-09)"
   sodipodi:docname="sleepmask.svg"
   xmlns:inkscape="http://www.inkscape.org/namespaces/inkscape"
   xmlns:sodipodi="http://sodipodi.sourceforge.net/DTD/sodipodi-0.dtd"
   xmlns:xlink="http://www.w3.org/1999/xlink"
   xmlns="http://www.w3.org/2000/svg"
   xmlns:svg="http://www.w3.org/2000/svg"><sodipodi:namedview
     id="namedview1"
     pagecolor="#ffffff"
     bordercolor="#666666"
     borderopacity="1.0"
     inkscape:showpageshadow="2"
     inkscape:pageopacity="0.0"
     inkscape:pagecheckerboard="0"
     inkscape:deskcolor="#d1d1d1"
     inkscape:document-units="mm"
     inkscape:zoom="0.88140675"
     inkscape:cx="282.50294"
     inkscape:cy="357.38324"
     inkscape:window-width="1440"
     inkscape:window-height="847"
     inkscape:window-x="0"
     inkscape:window-y="25"
     inkscape:window-maximized="0"
     inkscape:current-layer="layer1"
     showguides="false" /><defs
     id="defs1"><pattern
       inkscape:collect="always"
       xlink:href="#Strips1_1"
       preserveAspectRatio="xMidYMid"
       id="pattern42"
       patternTransform="matrix(0.78957408,-1.1441424,1.1446596,0.78921732,5.1704887,9.3945299)"
       x="0"
       y="0" /><pattern
       inkscape:collect="always"
       patternUnits="userSpaceOnUse"
       width="2"
       height="10"
       patternTransform="translate(0,0) scale(2,2)"
       preserveAspectRatio="xMidYMid"
       id="Strips1_1"
       style="fill:#000000"
       inkscape:stockid="Stripes 01 (1:1)"
       inkscape:isstock="true"
       inkscape:label="Stripes 01 (1:1)">
      <rect
   style="stroke:none"
   x="0"
   y="-0.5"
   width="1"
   height="11"
   id="rect134" />
    </pattern><clipPath
       clipPathUnits="userSpaceOnUse"
       id="clipPath52"><path
         id="path52"
         style="stroke-width:0.1;stroke-linecap:square;paint-order:markers fill stroke;stop-color:#000000"
         d="m -880.82767,-187.29769 h 1640.84 v 73.28155 h -1640.84 z" /></clipPath><clipPath
       clipPathUnits="userSpaceOnUse"
       id="clipPath5"><rect
         style="fill:#000000;stroke:#000000;stroke-width:0;stroke-linejoin:bevel;paint-order:stroke markers fill;stop-color:#000000"
         id="rect5-4"
         width="20"
         height="200"
         x="530"
         y="595" /></clipPath></defs><g
     inkscape:label="Layer 1"
     inkscape:groupmode="layer"
     id="layer1"
     transform="translate(-1.3229182,-92.286575)"><path
       id="rect1"
       style="fill:#202039;fill-opacity:1;stroke-width:0.367837;stroke-linejoin:round;paint-order:stroke markers fill"
       d="m 64.201128,116.66166 c -3.683511,1.2e-4 -6.669517,2.8971 -6.669515,6.47066 0.0024,2.36029 -0.200762,4.04441 -1.498748,4.91693 -2.192173,1.47361 -7.957666,2.34862 -8.048024,8.0895 -1.56e-4,3.89864 3.308095,7.05918 7.389074,7.05916 4.080972,2e-5 7.389223,-3.16052 7.389072,-7.05916 -0.0091,-1.37722 0.282532,-3.83385 1.140646,-5.49706 1.56546,-3.03419 6.967499,-0.40687 6.967497,-7.50937 3e-6,-3.57374 -2.986299,-6.4708 -6.670002,-6.47066 z"
       sodipodi:nodetypes="scscccass" /><path
       id="path1"
       style="fill:url(#pattern42);fill-opacity:1;stroke-width:0.367837;stroke-linejoin:round;paint-order:stroke markers fill"
       d="m 64.201128,116.66166 c -3.683511,1.2e-4 -6.669517,2.8971 -6.669515,6.47066 0.0024,2.36029 -0.20076,4.04441 -1.498747,4.91693 -2.192175,1.47361 -7.957665,2.34863 -8.048025,8.0895 -1.56e-4,3.89864 3.308095,7.05918 7.389074,7.05916 4.080972,2e-5 7.389223,-3.16052 7.389072,-7.05916 -0.0091,-1.37722 0.282531,-3.83385 1.140642,-5.49706 1.565463,-3.03419 6.967503,-0.40687 6.967501,-7.50937 3e-6,-3.57374 -2.986299,-6.4708 -6.670002,-6.47066 z"
       sodipodi:nodetypes="scscccass" /></g></svg>
