<?xml version="1.0" encoding="UTF-8" standalone="no"?>
<!-- Created with Inkscape (http://www.inkscape.org/) -->

<svg
   version="1.1"
   id="svg1"
   width="100.95867"
   height="85.806664"
   viewBox="0 0 100.95867 85.806664"
   sodipodi:docname="FP2.svg"
   inkscape:version="1.4 (e7c3feb1, 2024-10-09)"
   xmlns:inkscape="http://www.inkscape.org/namespaces/inkscape"
   xmlns:sodipodi="http://sodipodi.sourceforge.net/DTD/sodipodi-0.dtd"
   xmlns="http://www.w3.org/2000/svg"
   xmlns:svg="http://www.w3.org/2000/svg">
  <defs
     id="defs1">
    <clipPath
       clipPathUnits="userSpaceOnUse"
       id="clipPath5">
      <path
         d="m 8.06465,15.85985 c 10.02623,7.74156 12.634,27.05136 21.71082,31.30624 7.65937,3.4045 20.14027,-8.79307 14.4684,-9.07637 C 26.08765,57.94667 24.49721,17.7081 14.17642,10.85973 9.11053,7.49759 -5.00056,3.16617 -3.99101,9.19835 c 0.9239,5.51659 5.43092,1.54805 12.05566,6.6615 z"
         id="path5" />
    </clipPath>
    <clipPath
       clipPathUnits="userSpaceOnUse"
       id="clipPath7">
      <path
         d="m 8.06465,15.85985 c 10.02623,7.74156 12.634,27.05136 21.71082,31.30624 7.65937,3.4045 20.14027,-8.79307 14.4684,-9.07637 C 26.08765,57.94667 24.49721,17.7081 14.17642,10.85973 9.11053,7.49759 -5.00056,3.16617 -3.99101,9.19835 c 0.9239,5.51659 5.43092,1.54805 12.05566,6.6615 z"
         id="path7" />
    </clipPath>
    <clipPath
       clipPathUnits="userSpaceOnUse"
       id="clipPath9">
      <path
         d="m 8.06465,15.85985 c 10.02623,7.74156 12.634,27.05136 21.71082,31.30624 7.65937,3.4045 20.14027,-8.79307 14.4684,-9.07637 C 26.08765,57.94667 24.49721,17.7081 14.17642,10.85973 9.11053,7.49759 -5.00056,3.16617 -3.99101,9.19835 c 0.9239,5.51659 5.43092,1.54805 12.05566,6.6615 z"
         id="path9" />
    </clipPath>
    <clipPath
       clipPathUnits="userSpaceOnUse"
       id="clipPath11">
      <path
         d="m 8.06465,15.85985 c 10.02623,7.74156 12.634,27.05136 21.71082,31.30624 7.65937,3.4045 20.14027,-8.79307 14.4684,-9.07637 C 26.08765,57.94667 24.49721,17.7081 14.17642,10.85973 9.11053,7.49759 -5.00056,3.16617 -3.99101,9.19835 c 0.9239,5.51659 5.43092,1.54805 12.05566,6.6615 z"
         id="path11" />
    </clipPath>
    <clipPath
       clipPathUnits="userSpaceOnUse"
       id="clipPath13">
      <path
         d="m 8.06465,15.85985 c 10.02623,7.74156 12.634,27.05136 21.71082,31.30624 7.65937,3.4045 20.14027,-8.79307 14.4684,-9.07637 C 26.08765,57.94667 24.49721,17.7081 14.17642,10.85973 9.11053,7.49759 -5.00056,3.16617 -3.99101,9.19835 c 0.9239,5.51659 5.43092,1.54805 12.05566,6.6615 z"
         id="path13" />
    </clipPath>
    <clipPath
       clipPathUnits="userSpaceOnUse"
       id="clipPath15">
      <path
         d="m 8.06465,15.85985 c 10.02623,7.74156 12.634,27.05136 21.71082,31.30624 7.65937,3.4045 20.14027,-8.79307 14.4684,-9.07637 C 26.08765,57.94667 24.49721,17.7081 14.17642,10.85973 9.11053,7.49759 -5.00056,3.16617 -3.99101,9.19835 c 0.9239,5.51659 5.43092,1.54805 12.05566,6.6615 z"
         id="path15" />
    </clipPath>
    <clipPath
       clipPathUnits="userSpaceOnUse"
       id="clipPath17">
      <path
         d="m 8.06465,15.85985 c 10.02623,7.74156 12.634,27.05136 21.71082,31.30624 7.65937,3.4045 20.14027,-8.79307 14.4684,-9.07637 C 26.08765,57.94667 24.49721,17.7081 14.17642,10.85973 9.11053,7.49759 -5.00056,3.16617 -3.99101,9.19835 c 0.9239,5.51659 5.43092,1.54805 12.05566,6.6615 z"
         id="path17" />
    </clipPath>
    <clipPath
       clipPathUnits="userSpaceOnUse"
       id="clipPath19">
      <path
         d="m 8.06465,15.85985 c 10.02623,7.74156 12.634,27.05136 21.71082,31.30624 7.65937,3.4045 20.14027,-8.79307 14.4684,-9.07637 C 26.08765,57.94667 24.49721,17.7081 14.17642,10.85973 9.11053,7.49759 -5.00056,3.16617 -3.99101,9.19835 c 0.9239,5.51659 5.43092,1.54805 12.05566,6.6615 z"
         id="path19" />
    </clipPath>
    <clipPath
       clipPathUnits="userSpaceOnUse"
       id="clipPath21">
      <path
         d="m 8.06465,15.85985 c 10.02623,7.74156 12.634,27.05136 21.71082,31.30624 7.65937,3.4045 20.14027,-8.79307 14.4684,-9.07637 C 26.08765,57.94667 24.49721,17.7081 14.17642,10.85973 9.11053,7.49759 -5.00056,3.16617 -3.99101,9.19835 c 0.9239,5.51659 5.43092,1.54805 12.05566,6.6615 z"
         id="path21" />
    </clipPath>
  </defs>
  <sodipodi:namedview
     id="namedview1"
     pagecolor="#ffffff"
     bordercolor="#666666"
     borderopacity="1.0"
     inkscape:showpageshadow="2"
     inkscape:pageopacity="0.0"
     inkscape:pagecheckerboard="0"
     inkscape:deskcolor="#d1d1d1"
     inkscape:zoom="7.4070332"
     inkscape:cx="24.976262"
     inkscape:cy="-0.54002728"
     inkscape:window-width="1104"
     inkscape:window-height="847"
     inkscape:window-x="339"
     inkscape:window-y="25"
     inkscape:window-maximized="0"
     inkscape:current-layer="g1">
    <inkscape:page
       x="0"
       y="0"
       inkscape:label="1"
       id="page1"
       width="100.95867"
       height="85.806667" />
  </sodipodi:namedview>
  <g
     id="g1"
     inkscape:groupmode="layer"
     inkscape:label="1">
    <path
       id="path1"
       d="m 13.7482,5.66927 c 0,1.40895 -2.9189,2.5511 -6.51964,2.5511 -3.60074,0 -6.51964,-1.14215 -6.51964,-2.5511 0,-1.40896 2.9189,-2.55111 6.51964,-2.55111 3.60074,0 6.51964,1.14215 6.51964,2.55111 z"
       style="fill:#9c8364;fill-opacity:1;fill-rule:nonzero;stroke:none"
       transform="matrix(1.3333333,0,0,-1.3333333,33.076,88.258667)" />
    <path
       id="path2"
       d="m -0.70892,5.66927 c 0,1.40895 -2.9189,2.5511 -6.51964,2.5511 -3.60074,0 -6.51964,-1.14215 -6.51964,-2.5511 0,-1.40896 2.9189,-2.55111 6.51964,-2.55111 3.60074,0 6.51964,1.14215 6.51964,2.55111 z"
       style="fill:#9c8364;fill-opacity:1;fill-rule:nonzero;stroke:none"
       transform="matrix(1.3333333,0,0,-1.3333333,33.076,88.258667)" />
    <path
       id="path3"
       d="m 8.06465,15.85985 c 10.02623,7.74156 12.634,27.05136 21.71082,31.30624 7.65937,3.4045 20.14027,-8.79307 14.4684,-9.07637 C 26.08765,57.94667 24.49721,17.7081 14.17642,10.85973 9.11053,7.49759 -5.00056,3.16617 -3.99101,9.19835 c 0.9239,5.51659 5.43092,1.54805 12.05566,6.6615 z"
       style="fill:#62523f;fill-opacity:1;fill-rule:nonzero;stroke:none"
       transform="matrix(1.3333333,0,0,-1.3333333,33.076,88.258667)" />
    <path
       id="path4"
       d="m 17.05927,34.20612 1.41741,2.45506 9.81951,-5.66928 -1.41741,-2.45507 z"
       style="fill:#cab7a0;fill-opacity:1;fill-rule:nonzero;stroke:none"
       transform="matrix(1.3333333,0,0,-1.3333333,33.076,88.258667)"
       clip-path="url(#clipPath5)" />
    <path
       id="path6"
       d="m 19.89346,39.87546 1.41742,2.45504 9.81949,-5.66926 -1.41742,-2.45506 z"
       style="fill:#cab7a0;fill-opacity:1;fill-rule:nonzero;stroke:none"
       transform="matrix(1.3333333,0,0,-1.3333333,33.076,88.258667)"
       clip-path="url(#clipPath7)" />
    <path
       id="path8"
       d="m 23.6168,45.95197 2.17162,1.82222 7.28832,-8.68575 -2.17162,-1.8222 z"
       style="fill:#cab7a0;fill-opacity:1;fill-rule:nonzero;stroke:none"
       transform="matrix(1.3333333,0,0,-1.3333333,33.076,88.258667)"
       clip-path="url(#clipPath9)" />
    <path
       id="path10"
       d="m 31.63574,50.69211 2.79181,0.49228 1.96889,-11.1664 -2.79183,-0.49228 z"
       style="fill:#cab7a0;fill-opacity:1;fill-rule:nonzero;stroke:none"
       transform="matrix(1.3333333,0,0,-1.3333333,33.076,88.258667)"
       clip-path="url(#clipPath11)" />
    <path
       id="path12"
       d="m 45.07855,47.77419 2.1716,-1.82222 -7.28833,-8.68573 -2.1716,1.8222 z"
       style="fill:#cab7a0;fill-opacity:1;fill-rule:nonzero;stroke:none"
       transform="matrix(1.3333333,0,0,-1.3333333,33.076,88.258667)"
       clip-path="url(#clipPath13)" />
    <path
       id="path14"
       d="m 9.9726,20.03271 1.41741,2.45507 9.81949,-5.66928 -1.41742,-2.45505 z"
       style="fill:#cab7a0;fill-opacity:1;fill-rule:nonzero;stroke:none"
       transform="matrix(1.3333333,0,0,-1.3333333,33.076,88.258667)"
       clip-path="url(#clipPath15)" />
    <path
       id="path16"
       d="m 12.807,27.11942 1.41743,2.45504 9.81948,-5.66926 -1.41741,-2.45507 z"
       style="fill:#cab7a0;fill-opacity:1;fill-rule:nonzero;stroke:none"
       transform="matrix(1.3333333,0,0,-1.3333333,33.076,88.258667)"
       clip-path="url(#clipPath17)" />
    <path
       id="path18"
       d="m 4.66722,15.31462 1.82222,2.1716 8.68576,-7.28833 -1.82222,-2.1716 z"
       style="fill:#cab7a0;fill-opacity:1;fill-rule:nonzero;stroke:none"
       transform="matrix(1.3333333,0,0,-1.3333333,33.076,88.258667)"
       clip-path="url(#clipPath19)" />
    <path
       id="path20"
       d="M -2.64473,12.70512 -0.18967,14.12256 5.47958,4.30307 3.02454,2.88564 Z"
       style="fill:#cab7a0;fill-opacity:1;fill-rule:nonzero;stroke:none"
       transform="matrix(1.3333333,0,0,-1.3333333,33.076,88.258667)"
       clip-path="url(#clipPath21)" />
    <path
       id="path22"
       d="m -13.64473,39.53445 c -1.91255,0.69613 -5.28606,-3.74838 -7.53499,-9.92723 -2.24895,-6.17883 -2.5216,-11.75195 -0.60904,-12.44807 1.91256,-0.69611 5.28606,3.74838 7.53499,9.92723 2.24895,6.17883 2.52161,11.75197 0.60904,12.44807 z"
       style="fill:#9c8364;fill-opacity:1;fill-rule:nonzero;stroke:none"
       transform="matrix(1.3333333,0,0,-1.3333333,33.076,88.258667)" />
    <path
       id="path23"
       d="m 21.78876,17.15915 c 1.91256,0.69612 1.63991,6.26924 -0.60904,12.44807 -2.24893,6.17885 -5.62244,10.62336 -7.53499,9.92723 -1.91257,-0.6961 -1.63991,-6.26924 0.60904,-12.44807 2.24893,-6.17885 5.62243,-10.62334 7.53499,-9.92723 z"
       style="fill:#9c8364;fill-opacity:1;fill-rule:nonzero;stroke:none"
       transform="matrix(1.3333333,0,0,-1.3333333,33.076,88.258667)" />
    <path
       id="path24"
       d="M 16.86638,26.079 C 16.86638,7.37 10.06299,5.1022 0,5.1022 -10.06299,5.1022 -16.86638,7.37 -16.86638,26.079 -17.14967,44.788 -9.49635,59.81177 0,59.81177 9.49635,59.81177 17.14967,44.788 16.86638,26.079 Z"
       style="fill:#62523f;fill-opacity:1;fill-rule:nonzero;stroke:none"
       transform="matrix(1.3333333,0,0,-1.3333333,33.076,88.258667)" />
    <path
       id="path25"
       d="M 14.17339,51.02432 C 14.17339,44.788 5.66927,35.43349 0,32.88239 c -5.66927,2.5511 -14.17339,11.90561 -14.17339,18.14193 4.53559,14.17342 23.81119,14.17342 28.34678,0 z"
       style="fill:#cab7a0;fill-opacity:1;fill-rule:nonzero;stroke:none"
       transform="matrix(1.3333333,0,0,-1.3333333,33.076,88.258667)" />
    <path
       id="path26"
       d="m -13.98912,49.44513 c 0,0 8.55516,1.00651 10.10278,-0.31143 1.90187,-15.11762 1.90187,-15.11762 1.90187,-15.11762 -5.3574,3.31366 -11.05523,10.38912 -12.00465,15.42905 z m 27.97824,0 c 0,0 -8.55516,1.00651 -10.10278,-0.31143 C 1.98447,34.01608 1.98447,34.01608 1.98447,34.01608 7.34187,37.32974 13.0397,44.4052 13.98912,49.44513 Z"
       style="fill:#9c8364;fill-opacity:1;fill-rule:nonzero;stroke:none"
       transform="matrix(1.3333333,0,0,-1.3333333,33.076,88.258667)" />
    <path
       id="path27"
       d="m 2.5511,35.37683 c 0,1.40895 -1.14216,2.5511 -2.5511,2.5511 -1.40894,0 -2.5511,-1.14215 -2.5511,-2.5511 0,-1.40895 1.14216,-2.5511 2.5511,-2.5511 1.40894,0 2.5511,1.14215 2.5511,2.5511 z"
       style="fill:#42321f;fill-opacity:1;fill-rule:nonzero;stroke:none"
       transform="matrix(1.3333333,0,0,-1.3333333,33.076,88.258667)" />
    <path
       id="path28"
       d="m 7.93706,45.92168 c 0,0.78282 -0.6346,1.41742 -1.41742,1.41742 -0.78284,0 -1.41742,-0.6346 -1.41742,-1.41742 0,-0.78284 0.63458,-1.41742 1.41742,-1.41742 0.78282,0 1.41742,0.63458 1.41742,1.41742 z"
       style="fill:#42321f;fill-opacity:1;fill-rule:nonzero;stroke:none"
       transform="matrix(1.3333333,0,0,-1.3333333,33.076,88.258667)" />
    <path
       id="path29"
       d="m -5.10222,45.92168 c 0,0.78282 -0.63458,1.41742 -1.41742,1.41742 -0.78282,0 -1.41742,-0.6346 -1.41742,-1.41742 0,-0.78284 0.6346,-1.41742 1.41742,-1.41742 0.78284,0 1.41742,0.63458 1.41742,1.41742 z"
       style="fill:#42321f;fill-opacity:1;fill-rule:nonzero;stroke:none"
       transform="matrix(1.3333333,0,0,-1.3333333,33.076,88.258667)" />
    <path
       id="path30"
       d="m 15.87413,57.26067 c 0,1.8786 -1.52287,3.40147 -3.40147,3.40147 -1.8786,0 -3.40148,-1.52287 -3.40148,-3.40147 0,-1.87861 1.52288,-3.40148 3.40148,-3.40148 1.8786,0 3.40147,1.52287 3.40147,3.40148 z"
       style="fill:#cab7a0;fill-opacity:1;fill-rule:nonzero;stroke:none"
       transform="matrix(1.3333333,0,0,-1.3333333,33.076,88.258667)" />
    <path
       id="path31"
       d="m -9.07118,57.26067 c 0,1.8786 -1.52288,3.40147 -3.40148,3.40147 -1.8786,0 -3.40147,-1.52287 -3.40147,-3.40147 0,-1.87861 1.52287,-3.40148 3.40147,-3.40148 1.8786,0 3.40148,1.52287 3.40148,3.40148 z"
       style="fill:#cab7a0;fill-opacity:1;fill-rule:nonzero;stroke:none"
       transform="matrix(1.3333333,0,0,-1.3333333,33.076,88.258667)" />
    <path
       id="path32"
       d="m 15.02376,57.26067 c 0,1.40895 -1.14216,2.5511 -2.5511,2.5511 -1.40896,0 -2.55111,-1.14215 -2.55111,-2.5511 0,-1.40895 1.14215,-2.55112 2.55111,-2.55112 1.40894,0 2.5511,1.14217 2.5511,2.55112 z"
       style="fill:#9c8364;fill-opacity:1;fill-rule:nonzero;stroke:none"
       transform="matrix(1.3333333,0,0,-1.3333333,33.076,88.258667)" />
    <path
       id="path33"
       d="m -9.92155,57.26067 c 0,1.40895 -1.14215,2.5511 -2.55111,2.5511 -1.40894,0 -2.5511,-1.14215 -2.5511,-2.5511 0,-1.40895 1.14216,-2.55112 2.5511,-2.55112 1.40896,0 2.55111,1.14217 2.55111,2.55112 z"
       style="fill:#9c8364;fill-opacity:1;fill-rule:nonzero;stroke:none"
       transform="matrix(1.3333333,0,0,-1.3333333,33.076,88.258667)" />
    <path
       style="fill:#ffd700;stroke:#ffd700;stroke-width:0.5;stroke-linecap:butt;stroke-linejoin:miter;stroke-opacity:1"
       d="M 28.952396,49.324214 13.599886,30.520915"
       id="path36"
       sodipodi:nodetypes="cc" />
    <g
       id="g40"
       transform="matrix(0.73720091,0,0,0.77290308,9.5653421,-23.149462)">
      <ellipse
         style="fill:none;stroke:#ffd700;stroke-width:1.96047;stroke-linejoin:round;paint-order:stroke markers fill"
         id="ellipse37"
         cx="31.517527"
         cy="99.595581"
         rx="8.0757732"
         ry="7.2646604" />
      <path
         style="fill:#ffd700;stroke:#ffd700;stroke-width:1.5;stroke-linecap:butt;stroke-linejoin:miter;stroke-opacity:1"
         d="m 31.517526,106.4321 v 0 L 31.28578,92.759059"
         id="path38"
         sodipodi:nodetypes="ccc" />
      <path
         style="fill:#ffd700;stroke:#ffd700;stroke-width:1.5;stroke-linecap:butt;stroke-linejoin:miter;stroke-opacity:1"
         d="M 37.457826,104.67701 31.555794,99.5094"
         id="path39"
         sodipodi:nodetypes="cc" />
      <path
         style="fill:#ffd700;stroke:#ffd700;stroke-width:1.5;stroke-linecap:butt;stroke-linejoin:miter;stroke-opacity:1"
         d="m 25.480487,104.94702 5.902032,-5.167606"
         id="path40"
         sodipodi:nodetypes="cc" />
    </g>
    <path
       style="fill:#ffd700;stroke:#ffd700;stroke-width:0.5;stroke-linecap:butt;stroke-linejoin:miter;stroke-opacity:1"
       d="M 37.734893,49.324214 52.952396,30.655922"
       id="path41"
       sodipodi:nodetypes="cc" />
  </g>
</svg>
