<?xml version="1.0" encoding="UTF-8" standalone="no"?>
<!-- Created with Inkscape (http://www.inkscape.org/) -->

<svg
   version="1.1"
   id="svg1"
   width="176.36404"
   height="80.614609"
   viewBox="0 0 176.36405 80.614608"
   sodipodi:docname="bbear.svg"
   inkscape:version="1.4 (e7c3feb1, 2024-10-09)"
   xmlns:inkscape="http://www.inkscape.org/namespaces/inkscape"
   xmlns:sodipodi="http://sodipodi.sourceforge.net/DTD/sodipodi-0.dtd"
   xmlns="http://www.w3.org/2000/svg"
   xmlns:svg="http://www.w3.org/2000/svg">
  <defs
     id="defs1" />
  <sodipodi:namedview
     id="namedview1"
     pagecolor="#ffffff"
     bordercolor="#666666"
     borderopacity="1.0"
     inkscape:showpageshadow="2"
     inkscape:pageopacity="0.0"
     inkscape:pagecheckerboard="0"
     inkscape:deskcolor="#d1d1d1"
     inkscape:zoom="3.0089011"
     inkscape:cx="142.24462"
     inkscape:cy="32.57003"
     inkscape:window-width="1440"
     inkscape:window-height="847"
     inkscape:window-x="0"
     inkscape:window-y="25"
     inkscape:window-maximized="0"
     inkscape:current-layer="g1">
    <inkscape:page
       x="0"
       y="0"
       id="page1"
       width="176.36404"
       height="80.614609"
       inkscape:label="1cm"
       margin="1"
       bleed="0" />
  </sodipodi:namedview>
  <g
     id="g1"
     inkscape:groupmode="layer"
     inkscape:label="1"
     transform="translate(-3.3668556,-2.6865306)">
    <path
       id="path19"
       d="M 5.1555055,58.955076 C -1.2662675,39.54681 33.006904,25.093677 54.380626,22.380237 c 6.90502,4.958626 18.80674,11.508386 23.93952,13.94272 v 25.621812 c -5.80927,-4.936133 -13.33774,-6.603413 -20.42847,-2.989693 -7.54,-7.684187 -18.89787,-7.453493 -25.391132,0 -5.39,-7.672653 -21.634386,-8.224573 -27.3450385,0 z"
       style="fill:#363636;fill-opacity:1;fill-rule:nonzero;stroke:none;stroke-width:1.33333" />
    <path
       id="path20"
       d="m 177.94225,58.955076 c 6.42177,-19.408266 -27.8514,-33.861399 -49.22512,-36.574839 -6.90502,4.958626 -18.80674,11.508386 -23.93952,13.94272 v 25.621812 c 5.80927,-4.936133 13.33774,-6.603413 20.42847,-2.989693 7.54,-7.684187 18.89787,-7.453493 25.39113,0 5.39,-7.672653 21.63439,-8.224573 27.34504,0 z"
       style="fill:#363636;fill-opacity:1;fill-rule:nonzero;stroke:none;stroke-width:1.33333" />
    <path
       id="path3"
       d="m 112.35131,54.710423 c 0,-13.56812 -9.30687,-24.566973 -20.787764,-24.566973 -11.480893,0 -20.787759,10.998853 -20.787759,24.566973 0,13.568133 9.306866,24.566999 20.787759,24.566999 11.480894,0 20.787764,-10.998866 20.787764,-24.566999 z"
       style="fill:#363636;fill-opacity:1;fill-rule:nonzero;stroke:none;stroke-width:1.33333" />
    <path
       id="path4"
       d="m 104.79228,56.600329 c 0,-8.349559 -5.92264,-15.118053 -13.228734,-15.118053 -7.306093,0 -13.228733,6.768494 -13.228733,15.118053 0,8.3496 5.92264,15.118067 13.228733,15.118067 7.306094,0 13.228734,-6.768467 13.228734,-15.118067 z"
       style="fill:#4e4e4e;fill-opacity:1;fill-rule:nonzero;stroke:none;stroke-width:1.33333" />
    <path
       id="path5"
       d="m 118.20959,71.718396 c 0,-5.844747 -4.738,-10.582747 -10.58275,-10.582747 -5.84475,0 -10.582747,4.738 -10.582747,10.582747 0,5.844773 4.737997,10.582746 10.582747,10.582746 5.84475,0 10.58275,-4.737973 10.58275,-10.582746 z"
       style="fill:#363636;fill-opacity:1;fill-rule:nonzero;stroke:none;stroke-width:1.33333" />
    <path
       id="path6"
       d="m 86.083,71.718396 c 0,-5.844747 -4.738,-10.582747 -10.582746,-10.582747 -5.844747,0 -10.582747,4.738 -10.582747,10.582747 0,5.844773 4.738,10.582746 10.582747,10.582746 5.844746,0 10.582746,-4.737973 10.582746,-10.582746 z"
       style="fill:#363636;fill-opacity:1;fill-rule:nonzero;stroke:none;stroke-width:1.33333" />
    <path
       id="path7"
       d="m 114.05205,71.718396 c 0,-3.548587 -2.87662,-6.425214 -6.42521,-6.425214 -3.54859,0 -6.42521,2.876627 -6.42521,6.425214 0,3.548586 2.87662,6.425213 6.42521,6.425213 3.54859,0 6.42521,-2.876627 6.42521,-6.425213 z"
       style="fill:#4e4e4e;fill-opacity:1;fill-rule:nonzero;stroke:none;stroke-width:1.33333" />
    <path
       id="path8"
       d="m 81.925467,71.718396 c 0,-3.548587 -2.876627,-6.425214 -6.425213,-6.425214 -3.548587,0 -6.425214,2.876627 -6.425214,6.425214 0,3.548586 2.876627,6.425213 6.425214,6.425213 3.548586,0 6.425213,-2.876627 6.425213,-6.425213 z"
       style="fill:#4e4e4e;fill-opacity:1;fill-rule:nonzero;stroke:none;stroke-width:1.33333" />
    <path
       id="path9"
       d="m 111.40605,9.3556505 c 0,-3.1310132 -2.53812,-5.6691198 -5.66912,-5.6691198 -3.13101,0 -5.66913,2.5381066 -5.66913,5.6691198 0,3.1309995 2.53812,5.6691195 5.66913,5.6691195 3.131,0 5.66912,-2.53812 5.66912,-5.6691195 z"
       style="fill:#363636;fill-opacity:1;fill-rule:nonzero;stroke:none;stroke-width:1.33333" />
    <path
       id="path10"
       d="m 83.059293,9.3556505 c 0,-3.1310132 -2.53812,-5.6691198 -5.669133,-5.6691198 -3.131,0 -5.66912,2.5381066 -5.66912,5.6691198 0,3.1309995 2.53812,5.6691195 5.66912,5.6691195 3.131013,0 5.669133,-2.53812 5.669133,-5.6691195 z"
       style="fill:#363636;fill-opacity:1;fill-rule:nonzero;stroke:none;stroke-width:1.33333" />
    <path
       id="path11"
       d="m 109.51673,9.3556505 c 0,-2.0875333 -1.69225,-3.7797866 -3.7798,-3.7797866 -2.08753,0 -3.77981,1.6922533 -3.77981,3.7797866 0,2.0875335 1.69228,3.7797995 3.77981,3.7797995 2.08755,0 3.7798,-1.692266 3.7798,-3.7797995 z"
       style="fill:#4e4e4e;fill-opacity:1;fill-rule:nonzero;stroke:none;stroke-width:1.33333" />
    <path
       id="path12"
       d="m 81.169973,9.3556505 c 0,-2.0875333 -1.69228,-3.7797866 -3.779813,-3.7797866 -2.087546,0 -3.7798,1.6922533 -3.7798,3.7797866 0,2.0875335 1.692254,3.7797995 3.7798,3.7797995 2.087533,0 3.779813,-1.692266 3.779813,-3.7797995 z"
       style="fill:#4e4e4e;fill-opacity:1;fill-rule:nonzero;stroke:none;stroke-width:1.33333" />
    <path
       id="path13"
       d="m 110.4614,24.473703 c 0,-10.437133 -8.46073,-18.8978391 -18.897854,-18.8978391 -10.437119,0 -18.897852,8.4607061 -18.897852,18.8978391 0,10.437134 8.460733,18.897867 18.897852,18.897867 10.437124,0 18.897854,-8.460733 18.897854,-18.897867 z"
       style="fill:#363636;fill-opacity:1;fill-rule:nonzero;stroke:none;stroke-width:1.33333" />
    <path
       id="path14"
       d="m 102.14629,30.143423 c 0,-4.174786 -4.737997,-7.559039 -10.582744,-7.559039 -5.844746,0 -10.582746,3.384253 -10.582746,7.559039 0,4.174787 4.738,7.559027 10.582746,7.559027 5.844747,0 10.582744,-3.38424 10.582744,-7.559027 z"
       style="fill:#4e4e4e;fill-opacity:1;fill-rule:nonzero;stroke:none;stroke-width:1.33333" />
    <path
       id="path15"
       d="m 97.232653,26.363623 c 0,-1.66996 -2.53812,-3.023706 -5.669107,-3.023706 -3.130986,0 -5.669106,1.353746 -5.669106,3.023706 0,1.66996 2.53812,3.02372 5.669106,3.02372 3.130987,0 5.669107,-1.35376 5.669107,-3.02372 z"
       style="fill:#533737;fill-opacity:1;fill-rule:nonzero;stroke:none;stroke-width:1.33333" />
    <path
       id="path16"
       d="m 87.59516,18.804597 c 0,-1.043773 -0.846107,-1.889893 -1.889867,-1.889893 -1.043786,0 -1.889893,0.84612 -1.889893,1.889893 0,1.04376 0.846107,1.889893 1.889893,1.889893 1.04376,0 1.889867,-0.846133 1.889867,-1.889893 z"
       style="fill:#171717;fill-opacity:1;fill-rule:nonzero;stroke:none;stroke-width:1.33333" />
    <path
       id="path17"
       d="m 99.311693,18.804597 c 0,-1.043773 -0.846107,-1.889893 -1.889893,-1.889893 -1.04376,0 -1.889867,0.84612 -1.889867,1.889893 0,1.04376 0.846107,1.889893 1.889867,1.889893 1.043786,0 1.889893,-0.846133 1.889893,-1.889893 z"
       style="fill:#171717;fill-opacity:1;fill-rule:nonzero;stroke:none;stroke-width:1.33333" />
    <path
       id="path18"
       d="m 97.04408,30.898917 c -1.142267,3.138506 -4.612654,4.756653 -7.75112,3.614386 -1.679533,-0.611306 -3.00308,-1.934866 -3.6144,-3.614386"
       style="fill:none;stroke:#171717;stroke-width:0.531333;stroke-linecap:butt;stroke-linejoin:miter;stroke-miterlimit:10;stroke-dasharray:none;stroke-opacity:1" />
  </g>
</svg>
